# xmcd
#
# Track frame offsets:
#	150
#	19598
#	39754
#	59634
#	74904
#	86204
#	103668
#
# Disc length: 1682 seconds
#
# Revision: 0
# Processed by: cddbd v1.5.2PL0 Copyright (c) Steve Scherf et al.
# Submitted via: audiograbber 1.83.01
#
DISCID=5f069007
DTITLE=Mick reid Band - `Long Hard Road
DYEAR=2003
DGENRE=Blues
TTITLE0=Blue Funk
TTITLE1=Good On You
TTITLE2=The Thrill Is Gone
TTITLE3=Evils
TTITLE4=Stumpy's Jump
TTITLE5=Feel Like Cryin'
TTITLE6=Not fade Away
EXTD=
EXTT0=
EXTT1=
EXTT2=
EXTT3=
EXTT4=
EXTT5=
EXTT6=
PLAYORDER=
